<svg width="134" height="174" viewBox="0 0 134 174" fill="none" xmlns="http://www.w3.org/2000/svg">
<path d="M94.367 36.8619C82.1325 24.691 70.4674 13.0871 66.9927 0C63.5326 13.0871 51.8529 24.691 39.6329 36.8619C21.2958 55.1111 0.505892 75.8033 0.505892 106.82C0.389094 115.588 2.00966 124.313 5.29459 132.456C8.57951 140.599 13.4558 148.015 19.646 154.268C25.8217 160.52 33.1945 165.479 41.3265 168.867C49.4585 172.255 58.1891 174 66.9927 174C75.7963 174 84.5415 172.255 92.6735 168.867C100.791 165.479 108.164 160.52 114.354 154.268C120.544 148.015 125.421 140.599 128.705 132.456C131.99 124.313 133.611 115.588 133.494 106.82C133.494 75.8033 112.631 55.1111 94.367 36.8619ZM47.1372 57.3214C56.0138 48.6839 64.4816 40.4536 66.9927 31.1763C69.5184 40.4536 77.9862 48.6839 86.8628 57.3214C95.6226 65.8716 105.215 75.2071 110.704 86.8982C110.558 86.8691 110.412 86.8546 110.266 86.8255C107.594 86.3602 104.966 85.7495 102.382 84.9933C98.9513 83.99 95.5934 82.6958 92.3669 81.1254C92.0165 80.9509 91.7099 80.7909 91.4471 80.631C90.9361 80.3256 90.6003 80.0638 90.3667 79.8021C89.8119 79.1478 89.9725 78.4934 89.8996 77.3156C89.8558 76.6321 89.7828 75.9923 89.7097 75.3816C89.5492 74.1747 89.3156 73.0695 89.009 72.0953C88.8484 71.6009 88.6732 71.1501 88.4688 70.7139C88.1476 70.0304 87.768 69.4197 87.33 68.8817C87.111 68.6054 86.8628 68.3582 86.6146 68.1255C85.5051 67.1222 84.1619 66.4969 82.4829 66.2497C82.0741 66.1915 81.6361 66.1479 81.1836 66.1334C80.4828 66.1043 79.7528 66.1334 78.979 66.2061C78.1906 66.2788 77.3585 66.4097 76.4679 66.5842C76.1467 66.6569 75.8693 66.715 75.6357 66.7586C75.4021 66.8023 75.1977 66.8459 75.0225 66.875C74.8619 66.9041 74.7159 66.9331 74.5845 66.9477C74.4531 66.9477 74.3363 66.9622 74.2341 66.9477C74.0297 66.9186 73.8545 66.8459 73.6209 66.715C73.3873 66.5842 73.11 66.4097 72.7012 66.1479C72.2486 65.8716 71.7814 65.6244 71.3142 65.4063C70.8324 65.2027 70.3506 65.0282 69.8688 64.8828C67.9417 64.3303 65.9123 64.3303 63.9706 64.8828C63.4888 65.0282 63.007 65.2027 62.5398 65.4063C62.058 65.6244 61.6054 65.8716 61.1528 66.1479C60.9776 66.2497 60.8462 66.337 60.7148 66.4242C60.5835 66.4969 60.4813 66.5696 60.3791 66.6278C60.2039 66.7296 60.0433 66.8168 59.9119 66.875C59.7075 66.9477 59.5177 66.9622 59.2549 66.9477C59.0651 66.9331 58.8315 66.8895 58.5395 66.8314C58.2329 66.7586 57.8533 66.6859 57.3715 66.5842C55.605 66.2352 54.0428 66.0752 52.6704 66.1334C51.7507 66.1625 50.9185 66.2933 50.1593 66.5114C49.0205 66.8314 48.057 67.3694 47.2394 68.1255C46.9766 68.3582 46.743 68.6054 46.524 68.8817C46.0714 69.4197 45.6918 70.0304 45.3706 70.7139C45.21 71.0628 45.064 71.4409 44.918 71.8335C44.5238 73.0114 44.2464 74.3637 44.0713 75.9051C44.0275 76.3558 43.9837 76.8212 43.9545 77.3156C43.9545 77.5482 43.9252 77.7518 43.9252 77.9554C43.9252 78.1444 43.9107 78.3334 43.9107 78.4934C43.8961 78.9005 43.8231 79.235 43.6333 79.5549C43.5457 79.7003 43.4143 79.8457 43.2683 79.9911C43.0493 80.1947 42.7865 80.3983 42.3923 80.631C42.1295 80.7909 41.8375 80.9509 41.4725 81.1254C39.8666 81.9106 38.2168 82.6231 36.5524 83.2775C35.7056 83.5974 34.8735 83.9027 34.0267 84.179C31.4717 85.0515 28.873 85.7495 26.2305 86.3166C25.3545 86.5056 24.4639 86.6801 23.5879 86.8255C23.4857 86.8546 23.3835 86.8546 23.2813 86.8837C28.7562 75.1925 38.3336 65.8716 47.1372 57.3214ZM85.9576 76.5303C86.0306 77.3592 85.7824 77.3446 85.3299 77.0393C82.8041 75.3089 80.4098 73.3604 78.176 71.2373C77.665 70.7429 77.5921 70.4085 78.4096 70.2922C81.1544 69.8559 82.9647 70.1322 84.0451 71.121C85.1255 72.0953 85.6949 73.8984 85.9576 76.5303ZM55.6634 71.2373C53.4442 73.3604 51.0499 75.3089 48.5095 77.0393C48.0569 77.3446 47.8088 77.3592 47.8964 76.5303C48.1446 73.8984 48.7285 72.0953 49.7943 71.121C50.8893 70.1322 52.685 69.8559 55.4298 70.2922C56.262 70.4085 56.1744 70.7429 55.6634 71.2373ZM115.172 115.006C115.011 114.89 114.85 114.788 114.69 114.672C102.163 106.296 90.2353 97.1788 80.0302 85.8512C79.636 85.3568 78.8914 85.9239 79.2272 86.462C87.5052 99.9562 99.6083 109.364 112.383 117.915C112.894 118.249 113.361 118.671 113.755 119.151C114.704 120.299 115.23 121.884 114.69 124.24C114.164 126.552 112.456 128.515 110.091 129.257C110.018 129.199 109.959 129.14 109.901 129.082C97.4476 117.377 86.5562 104.493 77.5044 89.7774C77.1541 89.2248 76.3803 89.6756 76.6139 90.2427C82.9939 105.758 93.0093 118.234 104.718 129.606C105.886 130.74 107.054 131.569 107.682 132.848C108.12 133.75 108.281 134.87 107.93 136.513C107.229 139.683 104.704 142.184 101.638 142.809C100.484 143.056 99.6667 142.984 99.0243 142.707C97.6958 142.155 97.0972 140.613 95.9584 138.447C88.1038 123.484 80.5558 108.274 74.1903 92.5984C73.9421 91.9876 73.0954 92.293 73.2413 92.8892C77.2562 110.121 85.1401 126.276 93.3013 141.806C94.1189 143.362 94.9364 144.394 94.6882 146.052C94.586 146.663 94.367 147.346 93.929 148.175C91.9581 151.999 87.549 153.759 83.6217 152.595C83.1107 152.45 82.6873 152.29 82.3077 152.115C79.8988 151.025 79.9718 149.484 79.2272 146.444C75.0809 129.329 72.7304 111.764 69.8104 94.3869C69.6936 93.718 68.8031 93.8489 68.8177 94.4596C69.095 112.622 71.4018 130.958 75.7525 148.597C76.4241 151.33 76.6723 151.999 75.2123 153.86C75.1393 153.962 75.0663 154.049 74.9933 154.151C70.8762 159.153 62.9632 159.153 58.8607 154.151C58.7585 154.035 58.7001 153.948 58.6125 153.831C57.1671 151.985 57.4153 151.316 58.0869 148.597C62.4376 130.958 64.7444 112.622 65.0364 94.4596C65.0364 93.8489 64.1458 93.718 64.0436 94.3869C61.109 111.764 58.7585 129.329 54.6122 146.444C53.8822 149.454 53.9552 150.996 51.5901 152.086C51.2105 152.275 50.7579 152.435 50.2177 152.595C46.305 153.759 41.8813 151.999 39.9103 148.175C39.4432 147.288 39.2242 146.575 39.1512 145.935C38.9614 144.35 39.7498 143.318 40.5381 141.806C48.7139 126.276 56.5977 110.121 60.598 92.8892C60.744 92.293 59.8973 91.9876 59.6491 92.5984C53.2982 108.274 45.7356 123.484 37.881 138.447C36.7714 140.555 36.1874 142.068 34.9319 142.678C34.2603 142.998 33.4281 143.071 32.2017 142.809C29.1358 142.184 26.6101 139.683 25.9093 136.513C25.5443 134.797 25.7487 133.634 26.2305 132.718C26.8729 131.511 27.997 130.696 29.1358 129.606C40.8301 118.234 50.8455 105.758 57.2255 90.2427C57.4591 89.6756 56.6854 89.2248 56.3496 89.7774C47.3124 104.449 36.4648 117.289 24.0405 128.98L23.7631 129.257C21.3834 128.515 19.6898 126.552 19.1643 124.24C18.5949 121.797 19.1788 120.168 20.2008 119.005C20.5804 118.583 21.0038 118.22 21.471 117.915C34.2311 109.364 46.3342 99.9562 54.6122 86.462C54.948 85.9239 54.2034 85.3568 53.8092 85.8512C43.6479 97.1352 31.7637 106.238 19.2956 114.585C19.0913 114.716 18.8869 114.861 18.6825 115.006C16.7407 113.072 16.3027 110.266 17.1787 107.939C17.6167 106.791 18.1423 106.078 18.7701 105.555C19.6022 104.857 20.6242 104.493 21.909 103.911C33.5011 98.7493 45.0786 92.2057 53.123 81.9687C53.488 81.5034 52.904 80.8491 52.4223 81.2417C42.4507 89.4284 30.844 95.6375 19.1496 100.756C19.0766 100.8 18.989 100.829 18.9014 100.872C17.1349 98.5457 17.2517 95.4193 18.8284 93.2527C19.646 92.133 20.5074 91.6096 21.4564 91.3042C22.4784 90.9697 23.6171 90.9116 24.9165 90.6644C38.8738 88.076 51.3857 81.9397 61.1528 71.2664C64.54 67.573 69.314 67.573 72.6866 71.2664C82.4683 81.9397 94.9656 88.076 108.923 90.6644C110.31 90.9116 111.478 90.9843 112.558 91.3624C113.434 91.6823 114.252 92.2057 115.011 93.2527C116.588 95.4193 116.719 98.5457 114.938 100.872C114.909 100.858 114.88 100.843 114.85 100.829C103.112 95.6956 91.4471 89.472 81.4318 81.2417C80.9354 80.8491 80.3514 81.5034 80.731 81.9687C88.7608 92.2057 100.338 98.7493 111.93 103.911C113.303 104.522 114.369 104.9 115.23 105.685C115.785 106.194 116.267 106.878 116.661 107.939C117.551 110.266 117.099 113.072 115.172 115.006Z" fill="url(#paint0_linear_292_717)"/>
<defs>
<linearGradient id="paint0_linear_292_717" x1="67.0073" y1="23.3241" x2="67.0073" y2="166.671" gradientUnits="userSpaceOnUse">
<stop offset="0.1" stop-color="#179AD7"/>
<stop offset="0.55" stop-color="#88AD80"/>
<stop offset="0.86" stop-color="#CFB949"/>
<stop offset="1" stop-color="#ECBE34"/>
</linearGradient>
</defs>
</svg>
