<svg width="253" height="54" viewBox="0 0 253 54" fill="none" xmlns="http://www.w3.org/2000/svg">
<mask id="mask0_508_3252" style="mask-type:luminance" maskUnits="userSpaceOnUse" x="0" y="0" width="38" height="54">
<path d="M37.6458 0H0V53.7816H37.6458V0Z" fill="white"/>
</mask>
<g mask="url(#mask0_508_3252)">
<path d="M0 53.7816H37.6614V0H0V53.7816ZM17.4734 4.4766H18.3782V3.58752H19.2831V4.4766H20.1724V5.36568H19.2831V6.27036H18.3782V5.36568H17.4734V4.4766ZM10.7492 43.0191H8.95511V44.8128H7.16098V43.0191H5.36683V41.2253H7.16098V39.4315H8.95511V41.2253H10.7492V43.0191ZM10.7492 32.2721H8.95511V34.0659H7.16098V32.2721H5.36683V30.4783H7.16098V28.6846H8.95511V30.4783H10.7492V32.2721ZM10.7492 21.5095H8.95511V23.3033H7.16098V21.5095H5.36683V19.7158H7.16098V17.922H8.95511V19.7158H10.7492V21.5095ZM19.7512 40.2582C19.72 40.5702 19.7044 40.8978 19.7044 41.2253C19.7044 43.8926 20.5312 46.3726 21.9509 48.4004H15.6636C17.0834 46.3726 17.9102 43.8926 17.9102 41.2253C17.9102 40.8978 17.9102 40.5858 17.879 40.2582C14.8524 39.8059 12.5434 37.201 12.5434 34.0503H25.0868C25.0868 37.201 22.7622 39.8059 19.7512 40.2582ZM21.5141 19.7158V21.5095H19.72V23.3033H17.9258V21.5095H16.1317V19.7158H17.9258V17.922H19.72V19.7158H21.5141ZM18.8151 25.0971C20.7965 25.0971 22.4034 26.7036 22.4034 28.6846C22.4034 30.6655 20.7965 32.2721 18.8151 32.2721C16.8337 32.2721 15.2268 30.6655 15.2268 28.6846C15.2268 26.7036 16.8337 25.0971 18.8151 25.0971ZM25.1024 15.6915H12.559V14.3501H25.1024V15.6915ZM26.3661 12.0572L25.7108 12.9931H24.0415L25.2428 11.2617C25.4456 10.9653 25.5236 10.5754 25.5236 10.3414C25.5236 9.92028 25.3832 9.56153 25.118 9.28076C24.7904 8.95321 24.4003 8.78163 23.9323 8.78163C23.7295 8.78163 23.5891 8.79723 23.5891 8.79723C23.6983 9.15598 23.7451 9.49913 23.7451 9.81109C23.7451 10.3882 23.6827 10.8873 23.3707 11.4021L22.4346 12.9775H20.7964L22.1226 10.7314C22.2474 10.5286 22.341 10.1231 22.341 9.81109C22.341 9.34315 22.2006 8.9688 21.9041 8.67244C21.5609 8.31369 21.1553 8.12652 20.7184 8.12652C20.1568 8.12652 19.7668 8.2825 19.5015 8.61005V12.9775H18.1598V8.61005C17.8946 8.2825 17.489 8.12652 16.9273 8.12652C16.4905 8.12652 16.0849 8.29809 15.7417 8.67244C15.4452 8.9688 15.3048 9.34315 15.3048 9.81109C15.3048 10.1231 15.3984 10.5286 15.5232 10.7314L16.8493 12.9775H15.2112L14.2751 11.4021C13.9631 10.8873 13.9007 10.3882 13.9007 9.81109C13.9007 9.48354 13.9475 9.14038 14.0567 8.78163C14.0567 8.78163 13.9163 8.78163 13.7135 8.78163C13.2455 8.78163 12.8554 8.95321 12.5278 9.28076C12.2626 9.56153 12.1222 9.90468 12.1222 10.3414C12.1222 10.5754 12.2002 10.9653 12.403 11.2617L13.6043 12.9931H11.935L11.2797 12.0572C10.9209 11.5425 10.7492 10.9965 10.7492 10.3414C10.7492 9.49913 11.0457 8.79723 11.6229 8.2669C12.2002 7.67418 12.9178 7.36222 13.7291 7.36222C14.0723 7.36222 14.4468 7.44021 14.8368 7.56499C14.868 7.5338 14.8992 7.5026 14.9304 7.4714C15.4608 6.97227 16.1317 6.7227 16.9273 6.7227C17.6138 6.7227 18.2534 6.92548 18.8307 7.34662C19.4079 6.92548 20.0476 6.7227 20.7184 6.7227C21.5141 6.7227 22.185 6.97227 22.7154 7.4714C22.7466 7.5026 22.7778 7.5338 22.809 7.56499C23.199 7.44021 23.5735 7.36222 23.9167 7.36222C24.7279 7.36222 25.43 7.65858 26.0229 8.2669C26.6001 8.79723 26.8965 9.49913 26.8965 10.3414C26.8965 10.9965 26.7249 11.5425 26.3661 12.0572ZM32.2634 43.0191H30.4692V44.8128H28.6751V43.0191H26.8809V41.2253H28.6751V39.4315H30.4692V41.2253H32.2634V43.0191ZM32.2634 32.2721H30.4692V34.0659H28.6751V32.2721H26.8809V30.4783H28.6751V28.6846H30.4692V30.4783H32.2634V32.2721ZM32.2634 21.5095H30.4692V23.3033H28.6751V21.5095H26.8809V19.7158H28.6751V17.922H30.4692V19.7158H32.2634V21.5095ZM62.6233 39.2912C62.6233 45.1092 59.2691 48.3848 54.3235 48.3848H48.395V30.4471H54.0583C59.2067 30.4471 62.6077 33.6447 62.6077 39.2912M60.1271 39.2912C60.1271 34.8458 57.5529 32.6309 54.0271 32.6309H50.7508V46.201H54.1831C57.6622 46.201 60.1271 43.9081 60.1271 39.2912ZM66.8669 30.4627H77.8813L77.1481 32.6465H69.1915V37.9497H76.3212V40.1335H69.1915V46.2166H77.2573L77.9905 48.4004H66.8669V30.4627ZM88.459 39.3536C88.459 33.7695 91.938 30.0572 97.2737 30.0572C99.2706 30.0572 101.673 30.8371 103.436 31.8822V34.5806C101.221 33.208 98.8338 32.2877 97.2737 32.2877C93.5606 32.2877 90.9552 35.1265 90.9552 39.3536C90.9552 43.8458 93.2174 46.6222 96.5716 46.6222C99.6919 46.6222 101.954 44.6413 102.235 41.3033H97.2113L96.5092 39.1196H104.544C104.653 39.6187 104.7 40.1646 104.7 40.7574C104.7 45.5147 101.548 48.8683 96.556 48.8683C91.5636 48.8683 88.4434 45.2028 88.4434 39.3536M114.404 30.4627H115.917L123.453 48.4004H120.878L119.131 44.0017H111.096L109.333 48.4004H106.868L114.404 30.4627ZM118.273 41.8648L115.121 33.9879L111.954 41.8648H118.273ZM126.698 30.4627H129.038V46.2166H137.353L138.086 48.4004H126.698V30.4627ZM141.441 30.4627H143.781V48.4004H141.441V30.4627ZM148.009 39.2912C148.009 33.7227 151.051 30.0416 155.919 30.0416C158.025 30.0416 160.256 30.8215 161.894 32.0381V34.7678C159.913 33.286 157.728 32.2721 155.919 32.2721C152.798 32.2721 150.505 34.9237 150.505 39.2912C150.505 43.6586 152.689 46.5754 155.919 46.5754C157.744 46.5754 159.928 45.5615 161.894 44.0797V46.8094C160.256 48.026 158.025 48.8059 155.919 48.8059C150.958 48.8059 148.009 45.0156 148.009 39.2912ZM166.075 30.4627H168.415V48.4004H166.075V30.4627ZM179.211 30.4627H180.725L188.26 48.4004H185.686L183.938 44.0017H175.904L174.141 48.4004H171.676L179.211 30.4627ZM183.08 41.8648L179.929 33.9879L176.762 41.8648H183.08ZM54.4639 14.0849L48.7227 5.38128H51.4841L55.9616 12.1664L60.3768 5.38128H63.029L57.2877 14.1317L63.341 23.3033H60.5796L55.79 16.0503L51.0628 23.3033H48.4106L54.4639 14.0693V14.0849ZM66.1648 17.2981V5.36568H68.505V17.1889C68.505 19.9653 70.1899 21.5251 72.7953 21.5251C75.4007 21.5251 77.0857 19.9653 77.0857 17.1889V5.36568H79.4259V17.2981C79.4259 21.3224 76.8517 23.7712 72.7953 23.7712C68.739 23.7712 66.1648 21.3224 66.1648 17.2981ZM84.5431 5.36568H86.5088L95.6823 18.156V5.36568H98.0225V23.3033H96.6964L86.8677 9.60832V23.3033H84.5275V5.36568H84.5431ZM108.46 7.54939H101.954L101.221 5.36568H118.008L117.274 7.54939H110.769V23.3033H108.429V7.54939H108.46ZM124.701 5.36568H126.214L133.749 23.3033H131.175L129.428 18.9047H121.393L119.63 23.3033H117.165L124.701 5.36568ZM128.585 16.7834L125.434 8.90641L122.267 16.7834H128.585Z" fill="white"/>
</g>
<path d="M65.728 5.3811H66.6328L71.1572 16.1281H69.6127L68.5674 13.492H63.7466L62.6857 16.1281H61.2036L65.728 5.3811ZM68.0526 12.213L66.1648 7.48682L64.2614 12.213H68.0526Z" fill="white"/>
<path d="M75.2137 10.5908L71.7658 5.36548H73.4196L76.103 9.43654L78.7552 5.36548H80.3465L76.8986 10.622L80.5337 16.128H78.88L76.0094 11.7762L73.1699 16.128H71.5786L75.2137 10.6064V10.5908Z" fill="white"/>
<path d="M82.187 5.3811H88.7863L88.3495 6.69133H83.5755V9.8733H87.8503V11.1835H83.5755V14.8334H88.4119L88.8487 16.1437H82.187V5.3811Z" fill="white"/>
<path d="M90.8767 5.3811H92.0624L97.5696 13.0397V5.3811H98.9738V16.1281H98.1781L92.2808 7.92356V16.1281H90.8767V5.3811Z" fill="white"/>
<path d="M103.405 15.6602C102.687 15.1922 102.141 14.5215 101.766 13.6636C101.392 12.8057 101.205 11.8075 101.205 10.6688C101.205 9.53018 101.392 8.5943 101.782 7.75202C102.172 6.90973 102.718 6.25462 103.436 5.80228C104.153 5.34994 104.996 5.11597 105.948 5.11597C106.572 5.11597 107.196 5.22515 107.835 5.42793C108.475 5.6463 109.037 5.92706 109.536 6.30141V7.93919C108.927 7.48685 108.303 7.1125 107.679 6.84734C107.055 6.58217 106.478 6.44179 105.948 6.44179C105.324 6.44179 104.762 6.61337 104.278 6.94092C103.779 7.28408 103.405 7.76761 103.124 8.40713C102.843 9.04664 102.718 9.79534 102.718 10.6376C102.718 11.5267 102.859 12.3066 103.124 12.9617C103.389 13.6168 103.779 14.116 104.263 14.4747C104.746 14.8335 105.324 15.005 105.963 15.005C106.494 15.005 107.071 14.8647 107.695 14.5995C108.319 14.3343 108.927 13.96 109.551 13.5076V15.1454C109.052 15.5198 108.491 15.8161 107.851 16.0189C107.211 16.2217 106.587 16.3309 105.963 16.3309C104.996 16.3309 104.138 16.0969 103.436 15.629L103.405 15.6602Z" fill="white"/>
<path d="M111.736 5.3811H113.14V16.1281H111.736V5.3811Z" fill="white"/>
<path d="M119.303 5.3811H120.208L124.732 16.1281H123.188L122.142 13.492H117.322L116.261 16.1281H114.779L119.303 5.3811ZM121.628 12.213L119.74 7.48682L117.836 12.213H121.628Z" fill="white"/>
<path d="M133.5 5.3811C134.67 5.3811 135.59 5.67746 136.261 6.25459C136.932 6.83171 137.26 7.6584 137.26 8.68786C137.26 9.71733 136.932 10.5908 136.261 11.1991C135.59 11.8074 134.685 12.1038 133.531 12.1038H131.924V16.1281H130.52V5.3811H133.5ZM135.185 10.2477C135.606 9.85771 135.809 9.34298 135.809 8.68786C135.809 8.03275 135.59 7.54921 135.169 7.19046C134.748 6.83171 134.17 6.64454 133.437 6.64454H131.924V10.8248H133.468C134.202 10.8248 134.763 10.6376 135.185 10.2477Z" fill="white"/>
<path d="M141.909 5.3811H142.814L147.338 16.1281H145.794L144.748 13.492H139.928L138.867 16.1281H137.385L141.909 5.3811ZM144.218 12.213L142.33 7.48682L140.427 12.213H144.218Z" fill="white"/>
<path d="M152.096 5.3811C153.235 5.3811 154.109 5.64627 154.764 6.1922C155.404 6.73812 155.731 7.48682 155.731 8.45389C155.731 9.42097 155.435 10.1229 154.842 10.6688C154.249 11.2147 153.438 11.5267 152.424 11.5735L156.558 16.1437H154.733L150.723 11.5891H150.38V16.1437H148.976V5.3811H152.096ZM153.625 9.85771C154.046 9.49895 154.249 9.04661 154.249 8.46949C154.249 7.89237 154.046 7.47122 153.656 7.14367C153.266 6.81611 152.72 6.66013 152.018 6.66013H150.364V10.4036H151.956C152.642 10.4036 153.188 10.2321 153.609 9.8733L153.625 9.85771Z" fill="white"/>
<path d="M161.566 5.3811H162.471L166.996 16.1281H165.451L164.406 13.492H159.585L158.524 16.1281H157.042L161.566 5.3811ZM163.891 12.213L162.003 7.48682L160.1 12.213H163.891Z" fill="white"/>
<path d="M176.075 5.3811H176.98L181.504 16.1281H179.96L178.915 13.492H174.094L173.033 16.1281H171.551L176.075 5.3811ZM178.4 12.213L176.512 7.48682L174.609 12.213H178.4Z" fill="white"/>
<path d="M62.436 21.5095H63.7153L67.6468 29.5113L71.5784 21.5095H72.8265V32.2565H71.4848V24.4731L67.8653 31.8821H67.3972L63.7777 24.4887V32.2565H62.436V21.5095Z" fill="white"/>
<path d="M77.3352 31.851C76.6019 31.383 76.0403 30.7279 75.6502 29.8544C75.2602 28.981 75.0574 27.9671 75.0574 26.8128C75.0574 25.6586 75.2602 24.7227 75.6502 23.8804C76.0403 23.0381 76.6019 22.383 77.3352 21.9307C78.0684 21.4628 78.9265 21.2444 79.8938 21.2444C80.861 21.2444 81.7191 21.4784 82.4524 21.9307C83.1856 22.3986 83.7473 23.0381 84.1373 23.8804C84.5273 24.7227 84.7302 25.7054 84.7302 26.8128C84.7302 27.9203 84.5273 28.9966 84.1373 29.8544C83.7473 30.7279 83.1856 31.383 82.4524 31.851C81.7191 32.3189 80.861 32.5373 79.8938 32.5373C78.9265 32.5373 78.0684 32.3033 77.3352 31.851ZM82.3431 30.0572C82.936 29.2929 83.2324 28.2167 83.2324 26.8128C83.2324 25.9394 83.092 25.1907 82.8268 24.5511C82.546 23.9116 82.1559 23.4281 81.6567 23.0849C81.1575 22.7418 80.5646 22.5858 79.8938 22.5858C79.2229 22.5858 78.6301 22.7574 78.1308 23.0849C77.6316 23.4281 77.2415 23.9116 76.9607 24.5511C76.6799 25.1907 76.5551 25.9394 76.5551 26.8128C76.5551 28.2167 76.8515 29.2929 77.4444 30.0572C78.0372 30.8215 78.8641 31.1959 79.8938 31.1959C80.9234 31.1959 81.7503 30.8215 82.3431 30.0572Z" fill="white"/>
<path d="M93.0771 22.1334C93.8572 22.5546 94.45 23.1473 94.8713 23.9428C95.2925 24.7383 95.4953 25.6898 95.4953 26.7972C95.4953 27.9047 95.2925 28.9185 94.8713 29.7452C94.45 30.5719 93.8728 31.1958 93.1239 31.617C92.375 32.0381 91.5014 32.2565 90.5185 32.2565H86.9614V21.5095H90.3625C91.3922 21.5095 92.2971 21.7123 93.0615 22.1334H93.0771ZM93.0303 29.8856C93.6856 29.1837 93.9976 28.1542 93.9976 26.7972C93.9976 25.4402 93.6699 24.5199 92.9991 23.8336C92.3282 23.1473 91.439 22.8041 90.3469 22.8041H88.3811V30.9307H90.4405C91.517 30.9307 92.3907 30.5719 93.0303 29.87V29.8856Z" fill="white"/>
<path d="M97.7417 21.5095H104.341L103.904 22.8197H99.1302V26.0017H103.405V27.3119H99.1302V30.9619H103.967L104.403 32.2721H97.7417V21.5251V21.5095Z" fill="white"/>
<path d="M109.552 21.5095C110.691 21.5095 111.564 21.7747 112.219 22.3206C112.859 22.8665 113.187 23.6152 113.187 24.5823C113.187 25.5494 112.89 26.2513 112.297 26.7972C111.705 27.3431 110.893 27.6551 109.879 27.7019L114.014 32.2721H112.188L108.179 27.7175H107.836V32.2721H106.431V21.5251H109.552V21.5095ZM111.096 26.0017C111.517 25.643 111.72 25.1906 111.72 24.6135C111.72 24.0364 111.517 23.6152 111.127 23.2877C110.737 22.9601 110.191 22.8041 109.489 22.8041H107.836V26.5477H109.427C110.113 26.5477 110.659 26.3761 111.081 26.0173L111.096 26.0017Z" fill="white"/>
<path d="M115.73 21.5095H116.916L122.423 29.1681V21.5095H123.827V32.2565H123.031L117.134 24.052V32.2565H115.73V21.5095Z" fill="white"/>
<path d="M126.68 21.5095H128.085V32.2565H126.68V21.5095Z" fill="white"/>
<path d="M130.05 31.7574L135.776 22.8197H130.549L130.128 21.5095H137.851V22.0087L132.125 30.9463H137.57L137.991 32.2565H130.05V31.7574Z" fill="white"/>
<path d="M143.248 21.5095H144.153L148.678 32.2565H147.133L146.088 29.6204H141.267L140.206 32.2565H138.724L143.248 21.5095ZM145.573 28.357L143.685 23.6308L141.782 28.357H145.573Z" fill="white"/>
<path d="M151.642 31.8042C150.925 31.3363 150.379 30.6656 150.004 29.8077C149.63 28.9498 149.443 27.9515 149.443 26.8129C149.443 25.6742 149.63 24.7383 150.02 23.8961C150.41 23.0538 150.956 22.3987 151.674 21.9463C152.391 21.494 153.234 21.26 154.185 21.26C154.809 21.26 155.433 21.3692 156.073 21.572C156.713 21.7903 157.274 22.0711 157.774 22.4455V24.0832C157.165 23.6309 156.541 23.2565 155.917 22.9914C155.293 22.7262 154.716 22.5858 154.185 22.5858C153.561 22.5858 153 22.7574 152.516 23.085C152.017 23.4281 151.642 23.9117 151.362 24.5512C151.081 25.1907 150.956 25.9394 150.956 26.7817C150.956 27.6708 151.096 28.4507 151.362 29.1058C151.627 29.7609 152.017 30.26 152.5 30.6188C152.984 30.9775 153.561 31.1491 154.201 31.1491C154.731 31.1491 155.309 31.0087 155.933 30.7435C156.557 30.4784 157.165 30.104 157.789 29.6517V31.2895C157.29 31.6638 156.728 31.9602 156.089 32.163C155.449 32.3657 154.825 32.4749 154.201 32.4749C153.234 32.4749 152.376 32.2409 151.674 31.773L151.642 31.8042Z" fill="white"/>
<path d="M159.974 21.5095H161.378V32.2565H159.974V21.5095Z" fill="white"/>
<path d="M165.902 31.8508C165.169 31.3829 164.607 30.7278 164.217 29.8543C163.827 28.9808 163.624 27.967 163.624 26.8127C163.624 25.6585 163.827 24.7226 164.217 23.8803C164.607 23.038 165.169 22.3829 165.902 21.9306C166.635 21.4626 167.493 21.2443 168.461 21.2443C169.428 21.2443 170.286 21.4782 171.019 21.9306C171.752 22.3985 172.314 23.038 172.704 23.8803C173.094 24.7226 173.297 25.7053 173.297 26.8127C173.297 27.9202 173.094 28.9964 172.704 29.8543C172.314 30.7278 171.752 31.3829 171.019 31.8508C170.286 32.3188 169.428 32.5372 168.461 32.5372C167.493 32.5372 166.635 32.3032 165.902 31.8508ZM170.91 30.0571C171.503 29.2928 171.799 28.2165 171.799 26.8127C171.799 25.9392 171.659 25.1905 171.394 24.551C171.113 23.9115 170.723 23.428 170.224 23.0848C169.724 22.7417 169.131 22.5857 168.461 22.5857C167.79 22.5857 167.197 22.7573 166.698 23.0848C166.198 23.428 165.808 23.9115 165.528 24.551C165.247 25.1905 165.122 25.9392 165.122 26.8127C165.122 28.2165 165.418 29.2928 166.011 30.0571C166.604 30.8214 167.431 31.1957 168.461 31.1957C169.49 31.1957 170.317 30.8214 170.91 30.0571ZM167.681 19.8404L169.022 17.7971H170.848L168.632 20.3864L167.681 19.8404Z" fill="white"/>
<path d="M175.559 21.5095H176.744L182.252 29.1681V21.5095H183.656V32.2565H182.86L176.963 24.052V32.2565H175.559V21.5095Z" fill="white"/>
<path d="M65.51 38.9638H61.6097L61.1729 37.6536H71.2356L70.7988 38.9638H66.8985V48.4005H65.4944V38.9638H65.51Z" fill="white"/>
<path d="M72.8738 37.6536H79.4731L79.0363 38.9638H74.2623V42.1458H78.537V43.456H74.2623V47.1059H79.0987L79.5355 48.4161H72.8738V37.6692V37.6536Z" fill="white"/>
<path d="M82.9674 47.9326C82.2497 47.4647 81.7037 46.794 81.3292 45.9361C80.9548 45.0782 80.7676 44.0799 80.7676 42.9413C80.7676 41.8026 80.9548 40.8668 81.3448 40.0245C81.7348 39.1822 82.2809 38.5271 82.9986 38.0747C83.7162 37.6224 84.5587 37.3884 85.5104 37.3884C86.1344 37.3884 86.7584 37.4976 87.3981 37.7004C88.0378 37.9188 88.5994 38.1995 89.0986 38.5739V40.2117C88.4902 39.7593 87.8661 39.385 87.2421 39.1198C86.618 38.8546 86.0408 38.7143 85.5104 38.7143C84.8863 38.7143 84.3247 38.8858 83.841 39.2134C83.3418 39.5565 82.9673 40.0401 82.6865 40.6796C82.4057 41.3191 82.2809 42.0678 82.2809 42.9101C82.2809 43.7992 82.4213 44.5791 82.6865 45.2342C82.9517 45.8893 83.3418 46.3884 83.8254 46.7472C84.3091 47.1059 84.8863 47.2775 85.526 47.2775C86.0564 47.2775 86.6336 47.1371 87.2577 46.872C87.8817 46.6068 88.4902 46.2325 89.1142 45.7801V47.4179C88.615 47.7922 88.0533 48.0886 87.4137 48.2914C86.774 48.4941 86.15 48.6033 85.526 48.6033C84.5587 48.6033 83.7006 48.3694 82.9986 47.9014L82.9674 47.9326Z" fill="white"/>
<path d="M91.2986 37.6536H92.4843L97.9915 45.3121V37.6536H99.3956V48.4005H98.6L92.7027 40.196V48.4005H91.2986V37.6536Z" fill="white"/>
<path d="M103.904 47.9794C103.171 47.5115 102.61 46.8563 102.22 45.9829C101.83 45.1094 101.627 44.0955 101.627 42.9413C101.627 41.787 101.83 40.8511 102.22 40.0089C102.61 39.1666 103.171 38.5115 103.904 38.0591C104.638 37.5912 105.496 37.3728 106.463 37.3728C107.43 37.3728 108.288 37.6068 109.022 38.0591C109.755 38.527 110.317 39.1666 110.707 40.0089C111.097 40.8511 111.299 41.8338 111.299 42.9413C111.299 44.0487 111.097 45.125 110.707 45.9829C110.317 46.8563 109.755 47.5115 109.022 47.9794C108.288 48.4473 107.43 48.6657 106.463 48.6657C105.496 48.6657 104.638 48.4317 103.904 47.9794ZM108.928 46.2012C109.521 45.4369 109.817 44.3607 109.817 42.9569C109.817 42.0834 109.677 41.3347 109.412 40.6952C109.131 40.0556 108.741 39.5721 108.242 39.229C107.742 38.8858 107.15 38.7298 106.479 38.7298C105.808 38.7298 105.215 38.9014 104.716 39.229C104.217 39.5721 103.826 40.0556 103.546 40.6952C103.265 41.3347 103.14 42.0834 103.14 42.9569C103.14 44.3607 103.436 45.4369 104.029 46.2012C104.622 46.9655 105.449 47.3399 106.479 47.3399C107.508 47.3399 108.335 46.9655 108.928 46.2012Z" fill="white"/>
<path d="M113.561 37.6536H114.965V47.0903H119.958L120.395 48.4005H113.577V37.6536H113.561Z" fill="white"/>
<path d="M123.437 47.9793C122.704 47.5114 122.142 46.8562 121.752 45.9828C121.362 45.1093 121.159 44.0954 121.159 42.9412C121.159 41.7869 121.362 40.851 121.752 40.0088C122.142 39.1665 122.704 38.5114 123.437 38.059C124.17 37.5911 125.028 37.3727 125.996 37.3727C126.963 37.3727 127.821 37.6067 128.554 38.059C129.287 38.527 129.849 39.1665 130.239 40.0088C130.629 40.851 130.832 41.8337 130.832 42.9412C130.832 44.0486 130.629 45.1249 130.239 45.9828C129.849 46.8562 129.287 47.5114 128.554 47.9793C127.821 48.4472 126.963 48.6656 125.996 48.6656C125.028 48.6656 124.17 48.4316 123.437 47.9793ZM128.445 46.2011C129.038 45.4368 129.334 44.3606 129.334 42.9568C129.334 42.0833 129.194 41.3346 128.929 40.6951C128.648 40.0555 128.258 39.572 127.758 39.2289C127.259 38.8857 126.666 38.7297 125.996 38.7297C125.325 38.7297 124.732 38.9013 124.233 39.2289C123.733 39.572 123.343 40.0555 123.063 40.6951C122.782 41.3346 122.657 42.0833 122.657 42.9568C122.657 44.3606 122.953 45.4368 123.546 46.2011C124.139 46.9654 124.966 47.3398 125.996 47.3398C127.025 47.3398 127.852 46.9654 128.445 46.2011ZM125.216 35.9845L126.557 33.9412H128.383L126.167 36.5304L125.216 35.9845Z" fill="white"/>
<path d="M135.294 42.8632L131.846 37.6379H133.5L136.183 41.709L138.836 37.6379H140.427L136.979 42.8944L140.614 48.4005H138.96L136.09 44.0487L133.25 48.4005H131.659L135.294 42.8788V42.8632Z" fill="white"/>
<path d="M142.252 37.6536H143.657V48.4005H142.252V37.6536Z" fill="white"/>
<path d="M148.103 47.9326C147.385 47.4647 146.839 46.794 146.465 45.9361C146.09 45.0782 145.903 44.0799 145.903 42.9413C145.903 41.8026 146.09 40.8668 146.48 40.0245C146.87 39.1822 147.416 38.5271 148.134 38.0747C148.852 37.6224 149.694 37.3884 150.646 37.3884C151.27 37.3884 151.894 37.4976 152.534 37.7004C153.173 37.9188 153.735 38.1995 154.234 38.5739V40.2117C153.626 39.7593 153.002 39.385 152.378 39.1198C151.754 38.8546 151.176 38.7143 150.646 38.7143C150.022 38.7143 149.46 38.8858 148.977 39.2134C148.477 39.5565 148.103 40.0401 147.822 40.6796C147.541 41.3191 147.416 42.0678 147.416 42.9101C147.416 43.7992 147.557 44.5791 147.822 45.2342C148.087 45.8893 148.477 46.3884 148.961 46.7472C149.445 47.1059 150.022 47.2775 150.661 47.2775C151.192 47.2775 151.769 47.1371 152.393 46.872C153.017 46.6068 153.626 46.2325 154.25 45.7801V47.4179C153.751 47.7922 153.189 48.0886 152.549 48.2914C151.91 48.4941 151.285 48.6033 150.661 48.6033C149.694 48.6033 148.836 48.3694 148.134 47.9014L148.103 47.9326Z" fill="white"/>
<path d="M159.897 37.6536H160.802L165.326 48.4005H163.782L162.737 45.7645H157.916L156.855 48.4005H155.373L159.897 37.6536ZM162.222 44.4855L160.334 39.7593L158.431 44.4855H162.222Z" fill="white"/>
<path d="M177.215 38.2775C177.995 38.6986 178.588 39.2913 179.009 40.0868C179.43 40.8823 179.633 41.8338 179.633 42.9413C179.633 44.0487 179.43 45.0626 179.009 45.8893C178.588 46.716 178.01 47.3399 177.262 47.761C176.513 48.1822 175.639 48.4005 174.656 48.4005H171.099V37.6536H174.5C175.53 37.6536 176.435 37.8563 177.199 38.2775H177.215ZM177.168 46.0296C177.823 45.3277 178.135 44.2983 178.135 42.9413C178.135 41.5842 177.808 40.664 177.137 39.9777C176.466 39.2913 175.577 38.9482 174.485 38.9482H172.519V47.0747H174.578C175.655 47.0747 176.528 46.716 177.168 46.0141V46.0296Z" fill="white"/>
<path d="M181.879 37.6536H188.479L188.042 38.9638H183.268V42.1458H187.543V43.456H183.268V47.1059H188.104L188.541 48.4161H181.879V37.6692V37.6536Z" fill="white"/>
<path d="M196.373 47.9794C195.64 47.5115 195.078 46.8564 194.688 45.9985C194.298 45.1406 194.095 44.1268 194.095 42.9725C194.095 41.8183 194.314 40.8824 194.751 40.0401C195.188 39.1978 195.812 38.5427 196.607 38.0904C197.403 37.6224 198.339 37.4041 199.384 37.4041C199.961 37.4041 200.586 37.4976 201.256 37.7004C201.927 37.9032 202.536 38.1684 203.082 38.4803V40.1025C202.411 39.6813 201.756 39.3538 201.085 39.1042C200.414 38.8547 199.852 38.7299 199.384 38.7299C198.651 38.7299 197.996 38.9015 197.418 39.2602C196.841 39.619 196.404 40.1181 196.077 40.7576C195.749 41.3971 195.593 42.1458 195.593 42.9725C195.593 43.8616 195.734 44.6259 196.014 45.281C196.295 45.9361 196.685 46.4508 197.2 46.794C197.715 47.1528 198.292 47.3243 198.963 47.3243C199.915 47.3243 200.695 47.0436 201.303 46.482C201.927 45.9205 202.27 45.1406 202.348 44.1424H199.337L198.916 42.8321H203.737C203.799 43.1285 203.831 43.456 203.831 43.8148C203.831 44.7663 203.628 45.6086 203.238 46.3417C202.832 47.0748 202.27 47.6519 201.537 48.0574C200.804 48.463 199.946 48.6658 198.963 48.6658C197.98 48.6658 197.122 48.4318 196.389 47.9794H196.373Z" fill="white"/>
<path d="M209.353 37.6536H210.258L214.782 48.4005H213.238L212.193 45.7645H207.372L206.311 48.4005H204.829L209.353 37.6536ZM211.662 44.4855L209.774 39.7593L207.871 44.4855H211.662Z" fill="white"/>
<path d="M216.421 37.6536H217.825V47.0903H222.817L223.254 48.4005H216.436V37.6536H216.421Z" fill="white"/>
<path d="M224.954 37.6536H226.358V48.4005H224.954V37.6536Z" fill="white"/>
<path d="M230.805 47.9326C230.087 47.4647 229.541 46.794 229.167 45.9361C228.792 45.0782 228.605 44.0799 228.605 42.9413C228.605 41.8026 228.792 40.8668 229.182 40.0245C229.572 39.1822 230.118 38.5271 230.836 38.0747C231.554 37.6224 232.396 37.3884 233.348 37.3884C233.972 37.3884 234.596 37.4976 235.236 37.7004C235.875 37.9188 236.437 38.1995 236.936 38.5739V40.2117C236.328 39.7593 235.704 39.385 235.079 39.1198C234.455 38.8546 233.878 38.7143 233.348 38.7143C232.724 38.7143 232.162 38.8858 231.678 39.2134C231.179 39.5565 230.805 40.0401 230.524 40.6796C230.243 41.3191 230.118 42.0678 230.118 42.9101C230.118 43.7992 230.259 44.5791 230.524 45.2342C230.789 45.8893 231.179 46.3884 231.663 46.7472C232.146 47.1059 232.724 47.2775 233.363 47.2775C233.894 47.2775 234.471 47.1371 235.095 46.872C235.719 46.6068 236.328 46.2325 236.952 45.7801V47.4179C236.452 47.7922 235.891 48.0886 235.251 48.2914C234.611 48.4941 233.987 48.6033 233.363 48.6033C232.396 48.6033 231.538 48.3694 230.836 47.9014L230.805 47.9326Z" fill="white"/>
<path d="M239.136 37.6536H240.54V48.4005H239.136V37.6536Z" fill="white"/>
<path d="M246.702 37.6536H247.607L252.132 48.4005H250.587L249.542 45.7645H244.721L243.66 48.4005H242.178L246.702 37.6536ZM249.027 44.4855L247.139 39.7593L245.236 44.4855H249.027Z" fill="white"/>
<path d="M50.2519 0.03125H48.4421V54.0001H50.2519V0.03125Z" fill="white"/>
</svg>
