<svg xmlns="http://www.w3.org/2000/svg" id="Capa_1" viewBox="0 0 557.84 126.81"><defs><style>.cls-1{fill:#fff}</style></defs><path d="M100.63 41.99V4.11c0-3.06 1.07-4.11 4.15-4.11h49.09c2.53 0 3.42.97 3.24 3.49-.13 1.88-.97 2.68-2.87 2.68-6.63 0-13.27.03-19.9-.02-1.13 0-1.37.34-1.36 1.41.04 10.68.05 21.37 0 32.05 0 2.35 1.01 3.94 3.05 4.98 2.47 1.26 5.15 1.62 7.84 1.66 8.97.15 17.95.32 26.92-.1 1.82-.09 3.59-.51 5.21-1.36 1.82-.96 2.88-2.42 2.88-4.55 0-4.55.02-9.09.03-13.64 0-2.5 1.1-3.5 3.88-3.5 2.91 0 4.03.95 4.04 3.48.01 4.24 0 8.48 0 12.71 0 6.47-2.98 10.37-9.26 12.15-2.83.8-5.71 1.16-8.64 1.17-8.14.03-16.28.04-24.41 0-4.04-.02-8.02-.48-11.82-1.98-5.12-2.02-7.47-5.49-7.48-10.97-.02-10.73-.07-21.45-.06-32.18 0-1.03-.25-1.34-1.32-1.33-4.64.06-9.29.07-13.93 0-1.19-.02-1.55.27-1.54 1.51.05 12.98.03 25.96.03 38.94 0 .53-.04 1.06-.05 1.59-.05 2.04-.87 3.61-2.84 4.36-1.99.75-3.84.37-5.43-1.01-4.28-3.7-8.53-7.42-12.79-11.14C74.54 29.29 61.8 18.17 49.06 7.05c-.5-.44-1-.61-1.67-.61-9.16.02-18.31-.02-27.47.03-2.78.02-5.56.27-8.21 1.26-2.84 1.07-3.98 2.69-3.98 5.7v25.03c0 3.27 1.19 5.07 4.23 6.33 2.91 1.2 6 1.47 9.1 1.48 9.77.03 19.55 0 29.32.02 2.85 0 4.03 1.46 3.44 4.25-.24 1.14-.87 1.92-2.1 2.06-.61.07-1.23.13-1.85.13-9.29 0-18.58.05-27.86-.01-4.99-.04-9.99-.24-14.69-2.25C2.41 48.34 0 44.74 0 39.42V13.07c0-5.53 2.3-8.9 7.49-10.93C11.46.58 15.64.21 19.85.2 29.98.16 40.11.21 50.24.17c2.12 0 3.86.7 5.42 2.07 14.62 12.93 29.25 25.85 43.88 38.77.29.26.58.52 1.11.98ZM60.55 87.35V75.71c0-.57-.05-1.16.53-1.54.93-.61 2.06-.07 2.07 1.05.03 4.72 0 9.44.01 14.16 0 .72-.24 1.3-.94 1.6-.81.36-1.45 0-2.04-.52-2.4-2.15-4.81-4.29-7.21-6.43-2.37-2.11-4.73-4.22-7.09-6.33-.46.3-.27.69-.27 1-.02 3.4 0 6.79-.01 10.19v.93c-.03.84-.44 1.33-1.31 1.32-.86-.01-1.29-.45-1.29-1.32V75.79c0-.7.19-1.29.93-1.59.81-.33 1.47-.1 2.07.43 1.86 1.63 3.72 3.26 5.57 4.9 2.65 2.34 5.29 4.68 7.93 7.02.26.23.54.43 1.05.83ZM409.03 87.48v-11.9c0-.81.06-1.54 1.1-1.62.88-.07 1.48.21 1.48 1.22v14.16c0 .7-.2 1.3-.92 1.61-.81.35-1.44.03-2.04-.5-3.16-2.83-6.32-5.64-9.49-8.46-1.64-1.46-3.28-2.92-5.19-4.61v2.52c0 3.18-.01 6.35 0 9.53 0 .94-.11 1.72-1.3 1.68-1.07-.03-1.23-.72-1.22-1.63.03-4.5.02-9 0-13.5 0-.73.01-1.42.81-1.78.84-.38 1.55-.14 2.19.43 2.78 2.45 5.56 4.91 8.34 7.36 1.98 1.75 3.97 3.51 6.22 5.49ZM217.32 87.51V76.93c0-.57.02-1.15 0-1.72-.04-.93.45-1.27 1.3-1.26.82 0 1.19.41 1.18 1.24-.02 2.12 0 4.24 0 6.35v7.28c0 .83.12 1.71-.89 2.14-1.02.43-1.67-.18-2.34-.78-4.44-3.97-8.89-7.94-13.33-11.91-.26-.23-.52-.45-1-.86v4.76c0 2.47-.02 4.94.01 7.41.01.96-.3 1.55-1.33 1.53-1.01-.02-1.19-.66-1.19-1.52.02-4.54.01-9.09 0-13.63 0-.72 0-1.42.83-1.77.91-.38 1.62-.05 2.29.54 3.3 2.93 6.61 5.85 9.92 8.78 1.44 1.27 2.88 2.54 4.55 4ZM35.23 119.36c-2.12 0-4.24.04-6.36-.02-.92-.03-1.31.14-1.3 1.2.04 3.45.56 4.03 4.08 4.04 3.36.02 6.72 0 10.08 0 .76 0 1.59-.12 1.62 1.02.03 1.12-.76 1.1-1.55 1.1-3.76-.02-7.51-.03-11.27-.04-.89 0-1.76-.17-2.6-.43-2.1-.67-2.93-1.78-2.94-4-.01-2.47 0-4.94 0-7.41 0-2.93 1.12-4.3 4-4.81 1.84-.32 3.7-.29 5.55-.27.76.01 1.15.37 1.12 1.14-.02.74-.45.95-1.14.94-1.5-.01-3-.06-4.49.24-1.96.4-2.43.95-2.43 2.94q0 2.26 2.31 2.26h11.93c.55 0 1.24-.16 1.41.63.19.88-.06 1.46-1.13 1.45-2.3-.03-4.6 0-6.9 0ZM358.56 83.71c-2.17 0-4.33.05-6.5-.02-.91-.03-1.1.29-1.11 1.13-.03 3.33.26 3.83 3.55 4.01 3.57.19 7.15.08 10.73.12.47 0 .99-.13 1.35.34.47.6.15 1.64-.59 1.63-4.68-.07-9.37.42-14.02-.26-2.66-.39-3.54-1.68-3.54-4.39V78.6c0-2.19.93-3.45 3.04-4.06 2.2-.64 4.47-.39 6.72-.4.68 0 .9.46.88 1.07-.02.66-.4.91-1.04.92-1.37 0-2.73-.04-4.1.17-2.66.41-3.83 2.34-2.95 4.88.22.63.71.42 1.1.42 4.33.02 8.66 0 12.99.01.73 0 1.62-.19 1.64.97.02 1.17-.85 1.15-1.67 1.15h-6.5ZM31.35 83.71c-2.21 0-4.42.02-6.63-.01-.73-.01-.98.19-1.01.96-.12 3.52.48 4.19 4.29 4.27 3.18.07 6.37.01 9.55.01h.93c.64 0 1 .29 1.01.94 0 .68-.28 1.07-1.03 1.06-4.2-.03-8.4-.02-12.6-.07-.61 0-1.23-.17-1.82-.34-1.98-.59-2.87-1.68-2.91-3.74-.05-2.78-.06-5.56 0-8.34.04-2.22 1.01-3.38 3.18-3.96 2.17-.58 4.39-.36 6.6-.37.68 0 .91.46.87 1.07-.03.64-.37.94-1.03.92-1.55-.03-3.1-.04-4.63.25-2.09.39-3.38 3.11-2.34 4.94.29.51.79.28 1.2.29 4.29.02 8.58.02 12.87 0 .78 0 1.6-.08 1.58 1.04-.01 1.07-.8 1.09-1.6 1.09-2.17-.01-4.33 0-6.5 0ZM178.57 83.71c-2.21 0-4.42.03-6.63-.01-.74-.01-1.07.2-.98.97.04.39 0 .79 0 1.19 0 2.01.69 2.73 2.74 2.95 2.25.24 4.5.1 6.75.13 1.72.02 3.45.02 5.17 0 .77-.01 1.19.3 1.16 1.08-.03.71-.47.95-1.16.94-4.07-.03-8.13-.02-12.2-.05-.93 0-1.84-.23-2.7-.59-1.45-.59-2.27-1.66-2.28-3.25-.02-3-.05-6 .01-9 .04-1.83 1.08-2.99 3.02-3.54 2.21-.63 4.47-.4 6.72-.4.67 0 .92.46.9 1.06-.02.63-.36.94-1.02.93-1.5-.03-3-.03-4.49.22-2.27.39-3.58 2.88-2.57 4.94.27.54.78.31 1.17.31 4.42.02 8.84 0 13.26.02 1.06 0 1.5.58 1.19 1.46-.25.72-.87.65-1.44.65h-6.63ZM492.62 82.52c-2.03-1.78-4.01-3.53-5.99-5.27-.43-.38-.86-.76-1.3-1.13-.58-.49-1.08-1.06-.42-1.77.65-.7 1.35-.43 1.99.12 2.13 1.86 4.3 3.66 6.36 5.6.88.83 1.4.78 2.24-.01 1.87-1.75 3.84-3.39 5.77-5.07.27-.23.53-.47.8-.69.61-.49 1.25-.5 1.76.09.56.65.25 1.2-.32 1.69-2.2 1.91-4.36 3.87-6.61 5.72-.76.62-.61.89.02 1.43 2.19 1.86 4.34 3.76 6.49 5.65.48.42 1.21.84.57 1.61-.62.75-1.39.67-2.09.06-2.21-1.9-4.44-3.78-6.6-5.73-.69-.62-1.1-.69-1.82-.02-2.04 1.89-4.18 3.67-6.28 5.49-.26.23-.54.48-.86.6-.57.22-1.16.17-1.54-.38-.41-.6-.13-1.06.36-1.48 2.14-1.85 4.27-3.71 6.4-5.56l1.08-.95ZM66.46 126.72c-2.11-.09-4.24.13-6.34-.3-2.82-.57-3.81-1.76-3.81-4.64v-7.54c0-2.15.89-3.37 2.97-3.97 2.15-.62 4.37-.55 6.58-.51.71.01 1.04.46 1.01 1.13-.03.71-.47.96-1.16.95-1.5-.02-3-.05-4.49.25-1.86.37-2.29.87-2.29 2.73 0 2.43.04 4.85-.02 7.28-.03 1.24.57 1.91 1.67 2.19.68.17 1.39.28 2.09.29 2.61.03 5.21.05 7.82 0 2.67-.04 3.26-.67 3.26-3.28v-3.04c0-.88.53-1.14 1.28-1.15.78-.01 1.26.28 1.25 1.15-.02 1.59.05 3.18-.03 4.76-.08 1.75-1.23 2.91-3.2 3.37-2.18.5-4.4.25-6.6.34ZM547.28 90.94h-6.55c-.76 0-1.46-.02-1.43-1.06.02-.98.72-.94 1.4-.95 3.98-.06 7.96.16 11.93-.12 1.96-.14 2.56-.71 2.59-2.27.04-2.17-.48-2.82-2.54-3.08-2.73-.34-5.48.01-8.21-.21-.26-.02-.53-.03-.79-.05-3.82-.4-5.46-3.19-3.96-6.74.65-1.53 2.01-2.08 3.51-2.23 1.53-.15 3.09-.1 4.63-.14.7-.02 1.09.28 1.09 1.01s-.38 1.01-1.08 1c-1.1-.02-2.21-.05-3.31.02-2.17.14-3.22 1.77-2.48 3.81.29.81 1.01 1.05 1.77 1.19 2.02.39 4.06.14 6.08.18 1.63.04 3.27-.02 4.86.46 2.43.73 3.1 1.81 3.05 4.96-.03 2.19-.97 3.36-3.2 3.91-2.57.62-5.2.14-7.35.3ZM305.75 90.94c-2.44 0-4.43-.02-6.42.01-.8.01-1.46-.1-1.46-1.06 0-.93.7-.96 1.41-.96 3.32 0 6.64.01 9.95 0 .66 0 1.32-.04 1.98-.11 2.06-.2 2.64-.77 2.65-2.54.01-1.83-.65-2.58-2.6-2.82-2.77-.34-5.57.03-8.35-.22-.74-.07-1.5-.16-2.22-.36-1.89-.52-2.59-1.61-2.71-3.55-.23-3.58 1.19-4.97 4.89-5.2 1.15-.07 2.3-.01 3.45-.03.71-.01 1.24.18 1.25 1 0 .81-.49 1.01-1.22 1.02-1.32.02-2.66-.16-3.97.13-1.42.32-1.8.92-1.86 2.59-.05 1.35.55 2.05 1.85 2.29 2.07.38 4.15.13 6.22.19 1.46.04 2.92 0 4.35.33 2.64.62 3.41 1.73 3.41 4.93 0 2.48-.87 3.56-3.39 4.11-2.54.55-5.12.11-7.23.25ZM143.67 126.7c-1.86-.08-4.12.17-6.35-.28-2.78-.56-3.82-1.82-3.82-4.65v-7.67c0-2.07.82-3.17 2.79-3.82 1.1-.36 2.26-.48 3.4-.5 3.27-.06 6.54-.02 9.81-.02.73 0 1.34.13 1.35 1.05.01.92-.55 1.04-1.32 1.04-2.83-.02-5.66-.01-8.48 0-.49 0-.97 0-1.46.03-3.02.15-3.48.63-3.48 3.61 0 2.16.05 4.32-.02 6.48-.04 1.29.57 1.96 1.71 2.32.9.28 1.82.32 2.75.32h8.88c.79 0 1.43.1 1.42 1.1-.01.93-.63 1.03-1.36 1.03h-5.82ZM380.76 74.11c1.86 0 3.71.01 5.57 0 .74 0 1.37.12 1.36 1.02 0 .91-.64 1-1.38 1-2.96-.02-5.92 0-8.88 0-.49 0-.97 0-1.45.06-2.77.33-3.09.69-3.09 3.47 0 2.21.05 4.41-.02 6.62-.04 1.23.53 1.9 1.61 2.25 1.15.38 2.35.41 3.53.42 2.74.03 5.48.02 8.22 0 .77 0 1.48.04 1.46 1.05-.02.92-.68.97-1.4.97-3.36-.01-6.72.01-10.08-.02-.79 0-1.59-.12-2.36-.29-2.56-.58-3.57-1.86-3.58-4.46v-7.67c0-2.22.91-3.41 3.09-4.01 2.25-.62 4.57-.32 6.86-.38h.53ZM10.09 74.11h5.96c.68 0 1.25.1 1.27.96.02.91-.53 1.06-1.3 1.06-2.92-.02-5.84 0-8.76 0-.35 0-.71-.01-1.06 0-3.19.17-3.71.71-3.71 3.88 0 2.03.03 4.06 0 6.09-.02 1.36.59 2.14 1.89 2.49 1.12.3 2.27.34 3.41.35 2.74.03 5.48.02 8.23 0 .75 0 1.34.12 1.31 1.05-.02.83-.54.98-1.26.97-3.49-.02-6.99 0-10.48-.02-.98 0-1.93-.18-2.85-.52C.78 89.71 0 88.6 0 86.54v-8.08c0-2.23.89-3.4 3.09-3.98 2.44-.64 4.93-.26 7-.38ZM525.07 76.23c-1.63 2.53-3.2 4.97-4.78 7.4-1.37 2.11-2.75 4.2-4.13 6.3-.5.76-1.12 1.37-2.06.77-1-.65-.5-1.42 0-2.16 2.99-4.47 5.98-8.95 8.97-13.41 1.26-1.88 2.66-1.9 3.9-.05 3.01 4.46 6.01 8.92 9.01 13.39.46.69 1.15 1.45.14 2.15-1.06.73-1.7-.04-2.24-.87-2.61-4.03-5.23-8.06-7.84-12.09-.29-.44-.58-.88-.95-1.43ZM283.62 76.28c-2.94 4.5-5.79 8.85-8.63 13.2-.17.26-.34.51-.52.77-.48.67-1.11.91-1.83.45-.77-.48-.67-1.16-.23-1.83l2.64-3.96c2.18-3.26 4.36-6.53 6.54-9.78 1.26-1.88 2.66-1.9 3.9-.05 3.03 4.5 6.05 9 9.08 13.5.46.68 1 1.41.07 2.05-.97.67-1.64.07-2.17-.75-2.73-4.22-5.47-8.43-8.21-12.65-.19-.29-.4-.57-.66-.95ZM172.07 111.92c-1.24 1.93-2.38 3.7-3.53 5.47-1.71 2.62-3.42 5.24-5.14 7.86-.12.18-.25.36-.37.55-.49.77-1.12 1.19-1.98.61-.83-.57-.56-1.27-.11-1.95.76-1.13 1.52-2.27 2.28-3.41 2.28-3.41 4.55-6.82 6.84-10.22 1.27-1.88 2.63-1.87 3.9.01 3.03 4.5 6.05 9 9.08 13.49.46.68.99 1.4.02 2.04-.92.61-1.58.09-2.09-.69-2.64-4.06-5.28-8.13-7.92-12.2-.29-.44-.57-.89-.99-1.56ZM90.47 109.68c.78-.04 1.29.35 1.68.93 3.15 4.69 6.31 9.37 9.46 14.06.42.63.72 1.34-.08 1.84-.81.51-1.51.22-2.03-.57-2.71-4.18-5.44-8.36-8.15-12.54-.85-1.31-.85-1.32-1.7 0-2.63 4.03-5.25 8.06-7.88 12.09-.12.18-.25.37-.36.55-.48.77-1.18.99-1.92.52-.76-.48-.6-1.2-.17-1.85.87-1.33 1.76-2.65 2.64-3.97 2.21-3.3 4.43-6.59 6.63-9.9.47-.71.99-1.25 1.87-1.16ZM258.94 88.7c2.94-4.56 5.76-8.94 8.57-13.31.21-.33.41-.68.68-.98.49-.54 1.07-.59 1.66-.17.55.4.66.94.31 1.51-.41.68-.86 1.33-1.3 1.99-2.65 3.96-5.31 7.92-7.96 11.87-1.36 2.03-2.68 2.03-4.05 0-2.98-4.43-5.95-8.86-8.93-13.29-.47-.69-.97-1.41-.05-2.06 1-.71 1.6-.06 2.14.76 2.64 4.07 5.3 8.13 7.95 12.19.29.44.58.88.99 1.48ZM336.78 74.06h7.55c.72 0 1.47-.04 1.49 1.02.02 1.07-.69 1.04-1.43 1.04-1.59-.01-3.19.11-4.76-.04-1.43-.13-1.66.43-1.64 1.7.08 3.92.02 7.84.03 11.76 0 .7-.06 1.33-.9 1.54-1.04.26-1.69-.29-1.69-1.51-.01-4.01-.05-8.02.03-12.03.02-1.16-.27-1.53-1.46-1.46-1.71.11-3.44.01-5.16.03-.7 0-1.24-.12-1.28-.95-.05-.92.54-1.1 1.28-1.1h7.95ZM74.87 74.06h7.68c.77 0 1.47.09 1.44 1.08-.03.9-.66 1.03-1.39.98a6.94 6.94 0 0 0-.79 0c-1.84.09-3.69-.21-5.52.16-.25 1.84-.08 3.68-.1 5.53-.03 2.56-.04 5.11 0 7.67.02.99-.21 1.66-1.34 1.65-1.16-.01-1.3-.76-1.29-1.71.03-3.97-.04-7.94.04-11.9.03-1.22-.36-1.49-1.49-1.42-1.72.09-3.44 0-5.17.03-.74.01-1.22-.23-1.24-1.01-.02-.8.51-1.05 1.22-1.05h7.95ZM440.53 81.1c0-1.9.02-3.79 0-5.69-.01-.89.25-1.45 1.25-1.47 1.06-.02 1.36.55 1.36 1.51-.02 3.44-.01 6.88 0 10.32 0 1.88.4 2.36 2.25 2.84 1.12.29 2.28.27 3.42.28 2.96.02 5.92.02 8.88 0 .8 0 1.44.18 1.42 1.13-.02.95-.73.93-1.43.93h-10.34c-1.42 0-2.82-.2-4.15-.72-1.85-.73-2.63-1.85-2.64-3.83-.02-1.76 0-3.53 0-5.29ZM105.33 116.81c0-1.85.02-3.7 0-5.56-.02-.92.18-1.57 1.27-1.58 1.15-.01 1.4.66 1.39 1.63-.01 3.48 0 6.97 0 10.45 0 1.58.4 2.08 1.95 2.52 1.12.32 2.27.31 3.42.31h9.01c.76 0 1.48.04 1.53 1.02.05 1.01-.66 1.12-1.43 1.1-4.23-.11-8.48.29-12.7-.29-1.15-.16-2.24-.51-3.15-1.26-.88-.72-1.27-1.66-1.27-2.78v-5.56ZM510.37 82.51c0 2.33-.03 4.67.02 7 .02.96-.29 1.57-1.29 1.59-.98.02-1.36-.52-1.35-1.51.03-4.71.03-9.42 0-14.13 0-.97.32-1.51 1.35-1.51 1.08 0 1.3.64 1.28 1.56-.03 2.33-.01 4.67-.01 7ZM154.69 118.15c0-2.34.03-4.68-.01-7.02-.01-.91.26-1.43 1.24-1.46 1.07-.03 1.37.54 1.36 1.49-.01 4.72-.02 9.44 0 14.16 0 .99-.41 1.51-1.41 1.48-.98-.03-1.21-.61-1.2-1.51.04-2.38.01-4.77.01-7.15ZM128.76 118.27c0 2.38-.03 4.77.01 7.15.02.88-.31 1.35-1.18 1.38-.91.04-1.41-.4-1.41-1.34V110.9c0-.89.53-1.23 1.37-1.23.91 0 1.23.44 1.22 1.32-.03 2.43-.01 4.85-.01 7.28ZM512.18 68.23c-.02.44-.23.73-.48.98-1.07 1.11-2.15 2.21-3.21 3.33-.41.43-.9.73-1.37.28-.53-.5-.21-1.03.21-1.48 1.06-1.12 2.11-2.25 3.15-3.38.33-.36.73-.48 1.19-.37.35.09.44.38.5.63ZM102.64 74.34c-.43-.07-.87-.16-1.31-.16-4.55-.03-9.1-.04-13.65-.08-.88 0-1.13.4-1.13 1.22.02 4.76.02 9.53 0 14.29 0 .98.36 1.53 1.37 1.51.95-.02 1.28-.56 1.26-1.47-.03-1.75 0-3.5 0-5.26.57-.07.93.24 1.32.42 4.04 1.87 8.07 3.76 12.11 5.64.4.19.8.37 1.2.55.67.29 1.12-.02 1.42-.58.31-.6.14-1.12-.45-1.46-.3-.17-.64-.3-.96-.44-3.05-1.33-6.09-2.67-9.14-4 2.24-.23 4.43-.16 6.61-.26 1.91-.09 4.11-.25 4.87-2.27 1.22-3.23.85-6.91-3.51-7.64Zm1.22 6.79c-.5.85-1.42 1.02-2.31 1.04-1.9.04-3.79.01-5.69.01v.03c-1.9 0-3.79-.02-5.69.01-.7.01-1.05-.11-1.01-.92.06-1.45.03-2.9.01-4.36 0-.5.05-.85.7-.83 3.88.1 7.76-.24 11.63.19 2.29.25 3.53 2.86 2.36 4.84ZM15.99 109.96c-4.94-.48-9.89-.11-14.84-.21-.88-.02-1.12.51-1.11 1.29.01 2.38 0 4.76 0 7.15v6.75c0 1.68.07 1.75 1.69 1.76h11.4c1.28 0 2.56-.03 3.82-.35 2.29-.59 3.32-1.9 3.33-4.27v-7.28c0-3.15-1.17-4.54-4.29-4.84Zm-1.08 14.56c-1.94.11-3.89.02-5.84.02v.04c-1.81 0-3.63-.03-5.44.01-.72.02-1-.16-1-.94.04-3.62.03-7.24 0-10.86 0-.72.16-1 .94-.99 3.49.04 6.99.01 10.48.04.57 0 1.14.1 1.7.22 1.53.32 2 .91 2.01 2.46v6.89c0 2.14-.7 2.98-2.87 3.1ZM163.71 78.23c0-1.06-.32-2-1.12-2.72-.96-.86-2.15-1.27-3.4-1.29-4.9-.08-9.8-.08-14.7-.12-.96 0-1.03.6-1.03 1.32v7.14c0 2.34.03 4.67-.01 7.01-.02 1 .28 1.45 1.36 1.39 1.41-.08 2.83-.01 4.24-.02 3.22-.01 6.45.1 9.67-.07 3.34-.17 5.21-1.71 5.01-5.23-.14-2.46-.03-4.93-.03-7.4Zm-2.57 7.71c0 1.86-.75 2.73-2.7 2.83-1.98.1-3.97.02-5.96.02v.1c-1.77 0-3.54-.03-5.3.01-.8.02-1.19-.13-1.18-1.07.05-3.57.05-7.15 0-10.72-.01-.86.32-1.02 1.09-1.01 3.4.03 6.81 0 10.21.03.7 0 1.42.11 2.1.28 1.14.29 1.8.95 1.77 2.26-.07 2.43-.02 4.85-.02 7.28ZM129.47 79.11c0-2.62-1.09-3.98-3.63-4.63-2.04-.52-4.13-.33-6.2-.39-2.29.07-4.6-.2-6.83.58-2.17.76-2.97 1.86-2.97 4.13v7.15c0 2.79 1.03 4.21 3.82 4.65 3.99.62 8.02.62 12.01-.01 2.71-.43 3.8-1.95 3.81-4.73v-6.75Zm-5.25 9.65c-1.53.12-3.08.02-4.62.02-1.45.01-2.91.09-4.36 0-2.06-.14-2.81-1.01-2.81-3.02 0-2.2-.01-4.4 0-6.61.01-1.71.57-2.54 2.2-2.77a37.5 37.5 0 0 1 10.15 0c1.45.2 2.07 1.1 2.08 2.6.01 2.29 0 4.58 0 6.87 0 1.91-.69 2.75-2.64 2.91ZM240.41 74.46c-2-.49-4.04-.31-6.07-.36-2.24.06-4.51-.19-6.71.52-2.19.71-3.1 1.93-3.1 4.17v7.01c0 3 .97 4.34 3.93 4.82 3.72.61 7.48.43 11.22.09.56-.05 1.13-.22 1.66-.42 1.94-.72 2.77-1.94 2.78-4.03v-7.15c0-2.7-1.06-4.02-3.72-4.67Zm-1.55 14.31c-1.49.11-3 .02-4.5.02s-3.01.09-4.5-.02c-2.01-.14-2.71-.98-2.71-2.97v-6.75c0-1.57.63-2.47 2.15-2.67 3.34-.44 6.7-.45 10.04-.02 1.55.2 2.18 1.07 2.18 2.64v6.89c0 1.88-.73 2.75-2.66 2.89ZM432.25 74.48c-2.04-.52-4.13-.34-6.29-.38-2.19.07-4.5-.21-6.73.58-2.1.74-2.91 1.85-2.92 4.03v7.28c0 2.81 1 4.19 3.83 4.63 3.85.6 7.74.49 11.61.05.43-.05.87-.17 1.28-.32 1.98-.71 2.8-1.88 2.8-3.99v-7.28c0-2.71-.96-3.94-3.58-4.6Zm-1.61 14.28c-1.53.12-3.08.02-4.63.02-1.5 0-3.01.1-4.49-.03-2-.17-2.67-1.01-2.68-3.01v-6.61c0-1.64.65-2.55 2.22-2.77 3.29-.45 6.6-.43 9.89-.04 1.75.21 2.29.99 2.29 2.79v6.74c0 1.94-.66 2.76-2.6 2.9ZM481.02 79.06c0-2.66-1.05-3.95-3.64-4.59-2-.5-4.04-.33-6.07-.37-2.12.04-4.24-.13-6.33.38-2.51.62-3.55 1.92-3.55 4.51V86c0 2.71 1.05 4.16 3.74 4.59 4.03.63 8.11.64 12.13 0 2.68-.43 3.71-1.89 3.71-4.64v-6.88Zm-5.35 9.71c-1.49.11-3 .02-4.5.02-1.41 0-2.83.08-4.23-.01-2.22-.14-2.98-1-2.98-3.17v-6.34c0-1.82.63-2.68 2.38-2.91 3.25-.43 6.52-.41 9.76-.02 1.72.21 2.35 1.06 2.36 2.78.02 2.2 0 4.41 0 6.61 0 2.07-.71 2.89-2.81 3.05Z" class="cls-1"/></svg>